# xmcd CD database file
#
# Track frame offsets:
#	151
#	10834
#	19499
#	30000
#	42124
#	52652
#	59404
#	70189
#	82051
#	93139
#	103551
#	113978
#	122690
#	132480
#
# Disc length: 1884 seconds
#
# Revision: 0
# Processed by: cddbd v1.5.1PL0 Copyright (c) Steve Scherf et al.
# Submitted via: CDex 1.40Release
#
DISCID=ac075a0e
DTITLE=Waylon Jennings - Don't Think Twice
DYEAR=2002
DGENRE=Country
TTITLE0=Burning Memories
TTITLE1=Abilene
TTITLE2=Money
TTITLE3=Don't Think Twice
TTITLE4=Lorena
TTITLE5=It's So Easy
TTITLE6=Dream Baby
TTITLE7=Crying
TTITLE8=Big Mamou
TTITLE9=White Lightning
TTITLE10=Sally Was A Ol' Girl
TTITLE11=Love's Gonna Live Here
TTITLE12=When Sin Stops
TTITLE13=Jollie Blond
EXTD=YEAR: 2002 ID3G: 2
EXTT0=
EXTT1=
EXTT2=
EXTT3=
EXTT4=
EXTT5=
EXTT6=
EXTT7=
EXTT8=
EXTT9=
EXTT10=
EXTT11=
EXTT12=
EXTT13=
PLAYORDER=
